<?xml version="1.0" standalone="no"?>
<!DOCTYPE svg PUBLIC "-//W3C//DTD SVG 20010904//EN"
 "http://www.w3.org/TR/2001/REC-SVG-20010904/DTD/svg10.dtd">
<svg version="1.0" xmlns="http://www.w3.org/2000/svg"
 width="1286.000000pt" height="403.000000pt" viewBox="0 0 1286.000000 403.000000"
 preserveAspectRatio="xMidYMid meet">
<metadata>
Created by potrace 1.15, written by Peter Selinger 2001-2017
</metadata>
<g transform="translate(0.000000,403.000000) scale(0.100000,-0.100000)"
fill="#000000" stroke="none">
<path d="M817 3978 c-21 -182 -37 -336 -37 -356 0 -30 26 -39 50 -17 11 10 23
16 25 13 3 -3 -17 -25 -45 -48 -28 -23 -58 -59 -66 -79 -11 -26 -17 -32 -23
-22 -12 18 -41 -36 -42 -76 0 -23 -2 -25 -8 -9 -5 14 -10 16 -15 8 -4 -7 -4
-17 -1 -22 4 -6 1 -17 -5 -25 -6 -8 -9 -18 -6 -24 3 -5 2 -11 -3 -13 -15 -5
-24 -48 -10 -48 8 0 5 -9 -8 -22 -24 -28 -103 -144 -103 -153 0 -4 -6 -21 -14
-38 -7 -18 -21 -58 -30 -89 -9 -32 -21 -60 -26 -63 -6 -4 -10 -16 -10 -29 0
-12 -5 -27 -11 -33 -6 -6 -14 -35 -19 -64 -5 -30 -14 -74 -20 -99 -22 -89 -29
-173 -15 -187 11 -11 14 -10 18 5 12 47 3 -116 -23 -383 -12 -129 -39 -262
-50 -245 -4 6 -10 -7 -13 -31 -5 -41 -21 -62 -42 -56 -5 2 -17 -3 -25 -11 -10
-11 -11 -17 -3 -19 8 -3 3 -22 -13 -58 -29 -63 -48 -171 -41 -228 5 -36 4 -38
-10 -24 -11 11 -16 32 -14 68 1 41 -1 50 -13 46 -24 -9 -28 52 -8 131 10 39
21 75 25 79 4 3 7 13 7 21 0 8 14 34 30 59 17 24 30 48 30 54 0 5 4 9 9 9 12
0 21 25 31 85 11 65 38 186 46 205 13 28 16 45 19 120 3 41 7 90 10 108 4 23
3 32 -5 27 -5 -3 -7 -12 -4 -18 5 -8 4 -9 -4 -2 -6 6 -12 24 -14 40 -3 28 -5
27 -20 -20 l-16 -50 5 50 c3 28 10 68 15 90 21 81 38 169 33 173 -6 6 -9 -4
-33 -111 -18 -78 -77 -205 -90 -192 -6 6 29 117 44 139 8 11 14 34 14 51 0 17
5 36 11 42 6 6 9 19 7 29 -3 11 -14 -12 -28 -56 -13 -41 -38 -113 -57 -160
-64 -159 -73 -196 -73 -320 0 -86 -4 -121 -15 -137 -8 -12 -19 -52 -24 -90 -6
-47 -9 -56 -10 -30 -1 25 -5 36 -12 31 -7 -4 -9 0 -5 13 3 10 8 38 10 62 4 41
4 42 -15 25 -18 -16 -19 -16 -19 5 0 16 -5 21 -18 19 -16 -3 -17 -61 -20
-1016 l-2 -1012 850 0 c467 0 850 3 850 6 0 3 -5 14 -11 26 -6 11 -8 22 -5 25
3 4 11 -8 17 -25 l11 -32 206 0 206 0 -36 38 c-45 47 -60 77 -85 177 -49 191
-60 250 -52 271 4 12 10 57 13 100 4 60 2 83 -10 101 -8 13 -12 28 -9 34 8 13
25 69 20 69 -2 0 -13 -15 -25 -33 -12 -17 -19 -24 -16 -14 3 10 6 23 6 28 0 5
9 18 20 29 16 16 17 20 5 20 -18 0 -18 15 -1 155 l11 100 14 -120 c8 -66 15
-135 15 -152 1 -20 6 -33 14 -33 7 0 10 -5 7 -10 -4 -6 -10 -8 -14 -6 -12 8
-13 -69 -1 -157 16 -123 21 -142 31 -126 6 10 9 7 9 -12 0 -14 14 -79 30 -144
17 -65 30 -126 30 -136 0 -9 13 -46 30 -81 16 -34 30 -71 30 -80 0 -16 12 -18
117 -18 l117 0 60 39 c34 21 104 65 156 97 95 58 179 133 172 153 -5 16 9 13
28 -4 16 -14 23 -12 76 20 33 20 67 41 76 48 13 9 27 6 68 -13 46 -22 51 -27
46 -50 -21 -87 -20 -99 9 -110 35 -13 65 -4 65 20 0 11 12 30 26 43 l25 24
-43 87 -43 88 25 21 c14 12 37 30 50 39 l25 17 -50 1 c-36 0 -46 3 -35 10 8 5
11 10 5 10 -6 0 -11 40 -12 95 -2 90 4 121 36 175 5 8 14 28 20 43 16 39 43
31 61 -18 17 -47 18 -210 2 -268 -14 -48 -20 -51 161 59 78 48 168 102 199
121 31 18 60 38 63 43 15 24 38 4 95 -80 33 -49 60 -93 60 -97 0 -4 -32 -27
-70 -51 -41 -25 -70 -50 -70 -60 -1 -9 -3 -42 -6 -72 -7 -71 -25 -92 -20 -23
3 41 0 52 -16 62 -17 10 -31 6 -96 -30 -127 -69 -360 -208 -367 -219 -3 -5 1
-20 9 -32 21 -32 10 -77 -20 -84 -13 -3 -24 -14 -24 -23 0 -33 -20 -47 -67
-50 -7 -1 -13 -8 -13 -16 0 -13 30 -15 214 -15 l214 0 64 70 c70 78 87 83 148
49 l38 -21 21 21 c28 28 27 35 -14 68 -19 15 -35 32 -35 37 0 5 35 43 78 86
42 42 101 103 131 136 91 99 169 164 198 164 54 0 123 -68 123 -121 0 -7 -54
-67 -121 -135 -102 -102 -119 -125 -111 -140 5 -11 7 -25 5 -31 -3 -7 5 -25
16 -39 12 -15 21 -41 21 -60 0 -26 4 -33 23 -36 16 -2 21 -9 20 -26 -2 -19 2
-22 37 -22 47 0 57 27 13 32 -25 3 -28 8 -31 41 -2 25 2 45 13 57 14 16 13 20
-20 60 -19 23 -35 45 -35 50 0 7 24 40 62 85 17 21 160 198 284 352 85 106 88
111 104 193 19 101 30 140 39 140 4 0 15 -51 24 -114 17 -126 28 -156 57 -156
16 0 39 -24 63 -66 12 -22 -148 -203 -360 -407 -84 -80 -99 -104 -63 -94 35 9
51 -13 48 -68 -3 -47 -2 -50 21 -49 16 1 29 -8 40 -27 l16 -29 365 0 c253 1
360 4 348 11 -37 21 -7 40 36 23 13 -5 14 -9 5 -20 -21 -25 42 -16 70 10 15
13 87 65 161 116 185 128 260 180 292 203 40 30 70 12 108 -63 17 -33 31 -60
33 -60 1 0 3 98 5 218 3 206 2 221 -22 302 -24 85 -42 181 -66 355 -13 93 -50
234 -77 295 -16 35 -16 35 -23 10 -4 -14 -5 -61 -3 -105 5 -88 -9 -147 -29
-127 -15 15 -27 213 -16 270 6 33 3 55 -12 94 -18 47 -73 118 -92 118 -4 0
-51 36 -103 80 -53 44 -100 78 -105 75 -5 -3 -16 -27 -25 -54 -19 -59 -55 -96
-84 -86 -12 3 -21 10 -21 14 0 18 -63 21 -88 5 -14 -10 -55 -18 -101 -21 -68
-5 -78 -3 -94 15 -14 16 -27 19 -52 15 -42 -7 -142 45 -203 104 -23 24 -54 50
-68 59 -34 23 -72 101 -77 159 -3 30 -10 51 -20 57 -16 8 -144 -14 -270 -48
-45 -12 -66 -13 -89 -5 -29 10 -33 8 -78 -37 -25 -26 -69 -57 -96 -68 -55 -24
-248 -74 -286 -74 l-25 0 -7 -138 c-8 -155 -5 -175 36 -249 22 -40 29 -63 27
-95 -1 -24 2 -55 9 -69 11 -27 6 -69 -8 -69 -12 0 -102 127 -130 182 -21 42
-22 51 -11 94 16 62 5 245 -15 257 -8 4 -14 21 -14 37 0 15 -6 30 -12 32 -10
4 -7 24 12 79 27 84 28 115 6 181 -14 40 -15 61 -6 135 6 49 14 98 17 110 6
27 -15 123 -28 123 -5 0 -11 -10 -13 -22 -2 -13 -11 -54 -20 -93 -8 -38 -22
-110 -31 -160 -19 -105 -37 -150 -91 -224 -67 -92 -110 -135 -178 -175 -71
-42 -88 -69 -101 -164 -6 -45 -3 -59 19 -102 14 -27 26 -58 26 -69 0 -10 -19
-36 -43 -58 -35 -32 -57 -43 -116 -56 -98 -23 -129 -21 -184 7 -54 27 -59 19
-26 -43 13 -25 19 -53 17 -77 -3 -40 -24 -57 -34 -27 -3 10 -16 38 -29 63 -12
25 -25 67 -29 94 -6 48 -28 86 -99 171 -23 28 -28 43 -28 87 1 81 -4 131 -17
154 -8 14 -8 40 -2 85 5 35 10 98 10 139 0 41 5 102 10 135 14 79 15 444 2
486 -6 19 -13 61 -17 94 -10 88 -27 46 -36 -91 -9 -136 -28 -210 -80 -319 -28
-59 -52 -95 -82 -119 -23 -20 -82 -70 -132 -112 -49 -42 -107 -85 -128 -95
-36 -19 -59 -52 -50 -75 2 -6 -3 -24 -12 -40 -8 -16 -15 -50 -15 -77 0 -26 -5
-55 -11 -65 -9 -14 -8 -26 5 -50 9 -18 20 -32 24 -32 5 0 18 -9 31 -21 28 -27
18 -40 -58 -76 -39 -18 -71 -26 -103 -25 -27 1 -48 -3 -48 -9 0 -5 11 -36 25
-69 27 -65 30 -74 16 -66 -13 8 -31 -50 -31 -99 0 -61 -10 -103 -27 -109 -8
-4 -11 -2 -7 5 4 6 2 14 -4 18 -6 3 -12 35 -15 71 -3 36 -8 74 -12 85 -3 11
-13 38 -21 59 -13 37 -12 41 6 58 20 19 29 65 10 53 -5 -3 -10 1 -10 9 0 9 9
21 20 28 28 18 25 37 -10 80 -25 30 -106 88 -124 88 -5 0 2 -76 9 -97 7 -20
-14 -257 -30 -333 -22 -107 -89 -263 -133 -313 -9 -10 -24 -34 -33 -54 l-16
-35 -6 39 c-4 21 -7 65 -7 98 -1 51 -3 57 -13 43 -8 -9 -22 -42 -32 -72 l-19
-55 23 -55 c12 -31 20 -60 16 -66 -9 -15 -25 -2 -19 14 3 8 -3 29 -12 48 -14
25 -19 29 -22 16 -2 -10 -7 -18 -12 -18 -14 0 -19 28 -15 82 l5 53 -14 -45
c-8 -27 -10 -52 -4 -62 11 -23 -7 -143 -33 -219 -29 -84 -29 -145 1 -195 22
-37 20 -36 -29 16 -28 30 -66 79 -83 109 l-31 54 23 44 c13 24 25 41 28 38 3
-2 -1 -11 -8 -20 -10 -12 -10 -15 4 -15 9 0 16 8 17 18 0 9 2 33 3 52 3 30 2
32 -8 16 -34 -58 -119 -162 -145 -178 -29 -19 -49 -67 -37 -87 4 -5 1 -13 -5
-17 -19 -11 -47 31 -59 92 -7 32 -22 66 -37 82 -15 16 -23 20 -19 10 6 -19
-29 -34 -105 -44 -78 -10 -57 -23 43 -26 91 -3 92 -3 99 -31 6 -23 4 -30 -14
-37 -48 -18 -131 -40 -152 -40 -37 0 -82 -20 -67 -29 8 -4 24 -6 37 -3 13 2
31 -1 42 -7 10 -6 12 -11 5 -11 -7 0 -31 -12 -53 -26 -22 -14 -46 -23 -52 -21
-7 2 -31 -11 -54 -29 -27 -22 -52 -34 -72 -34 -19 0 -34 -6 -37 -15 -5 -11
-23 -15 -73 -15 -104 0 -112 7 -134 125 -33 172 -28 201 42 248 26 17 82 60
124 94 42 34 92 67 112 74 22 8 34 18 31 26 -3 7 1 13 8 13 19 0 29 31 14 43
-8 5 -2 7 20 3 27 -5 32 -2 32 14 0 22 30 44 73 54 18 4 33 18 44 41 16 34 27
40 68 35 39 -4 5 13 -42 21 -111 20 -167 35 -171 47 -2 6 3 12 11 12 8 0 18
11 21 25 9 34 41 40 146 27 48 -6 97 -8 108 -5 11 2 29 0 40 -6 17 -9 25 -1
71 67 28 42 85 125 126 185 41 59 72 113 69 120 -2 7 0 24 6 38 10 23 10 23 6
-6 l-4 -30 26 31 c32 37 68 58 84 48 7 -5 5 -11 -7 -21 -11 -7 -13 -13 -6 -13
7 0 10 -4 6 -10 -3 -5 -12 -7 -19 -4 -7 3 -31 -15 -53 -40 -43 -49 -109 -164
-99 -173 3 -4 6 -3 6 1 0 4 20 -7 44 -23 24 -17 48 -31 53 -33 6 -2 32 29 58
67 27 39 41 64 31 56 -20 -16 -18 -18 -39 37 -25 62 -22 69 23 74 22 2 40 0
40 -4 0 -5 6 -8 13 -8 8 0 19 -11 26 -24 11 -20 10 -28 -13 -64 -22 -35 -25
-50 -22 -104 2 -35 4 -88 5 -118 1 -33 5 -49 9 -40 5 8 6 62 2 118 -3 57 -2
106 3 109 4 2 7 -2 7 -9 0 -9 3 -9 10 2 8 12 9 9 6 -10 -7 -31 -10 -95 -8
-137 2 -38 18 -44 25 -11 3 14 5 8 6 -15 1 -25 -3 -36 -10 -32 -7 5 -9 -4 -5
-27 3 -18 8 -60 11 -93 5 -57 5 -59 -9 -30 -13 29 -14 26 -13 -47 2 -63 4 -75
14 -62 7 9 17 42 23 73 6 31 15 72 20 91 5 19 11 59 15 87 8 61 24 80 26 31 1
-18 1 -36 0 -40 0 -5 3 -8 9 -8 5 0 10 15 10 33 0 17 4 48 9 67 16 59 25 150
25 257 1 56 4 105 9 109 4 4 7 12 7 18 0 5 -9 0 -20 -12 -11 -12 -20 -28 -20
-37 0 -20 -16 -19 -24 1 -3 8 -10 12 -16 9 -5 -3 -10 -1 -10 5 0 6 -13 28 -30
48 -29 36 -29 39 -20 98 6 33 9 86 7 118 -1 31 3 60 8 64 6 4 11 14 13 22 2 8
7 21 12 30 8 12 9 12 10 -5 1 -20 1 -20 15 -1 8 11 15 28 15 39 0 13 5 17 16
13 12 -5 15 -2 10 10 -3 8 -6 20 -6 25 0 6 -4 8 -9 5 -5 -4 -12 7 -16 24 -4
16 -10 30 -14 30 -9 0 -31 -46 -31 -65 0 -8 -14 -36 -31 -62 -20 -30 -29 -39
-24 -23 3 14 10 46 15 71 5 26 13 55 19 65 22 39 41 97 40 123 0 20 -4 16 -15
-19 -8 -25 -23 -56 -35 -70 l-21 -25 7 30 c4 16 11 32 16 35 4 3 8 19 7 35 -1
17 1 37 4 45 2 8 3 12 1 8 -10 -17 -21 -7 -17 15 3 16 0 14 -10 -8 -8 -16 -12
-33 -9 -37 2 -5 -1 -8 -7 -8 -6 0 -8 -5 -5 -11 4 -5 0 -18 -8 -27 -9 -9 -16
-21 -17 -27 -4 -19 -38 -80 -57 -100 -16 -17 -46 -62 -106 -160 -37 -60 -39
-62 -31 -30 4 17 15 46 24 65 9 19 15 41 13 48 -3 6 0 12 7 12 6 0 9 4 6 8 -3
5 9 19 27 32 34 25 52 46 77 89 9 14 23 37 32 51 20 32 33 90 20 90 -12 0 2
60 25 104 10 20 17 25 23 17 5 -9 9 -5 13 11 11 37 8 60 -5 52 -8 -5 -9 1 -5
22 3 16 3 42 0 58 l-6 29 -13 -29 c-12 -27 -12 -26 -7 19 5 43 -5 113 -27 187
-4 15 -7 -13 -7 -70 -1 -102 -3 -109 -78 -279 -55 -126 -76 -154 -164 -226
-134 -108 -276 -148 -390 -110 -29 9 -54 15 -57 13 -5 -5 63 -55 100 -73 12
-6 20 -19 19 -30 -4 -26 6 -38 41 -50 16 -6 34 -19 40 -30 6 -11 14 -22 17
-25 8 -8 5 -53 -5 -69 -6 -10 -6 -16 2 -19 8 -2 8 -10 0 -28 -9 -19 -9 -27 0
-33 7 -4 -10 -13 -40 -21 -68 -17 -210 -15 -246 5 -15 8 -22 14 -15 15 7 0 10
9 6 23 -3 12 -7 67 -9 122 -8 301 -8 305 -54 371 -33 49 -44 77 -61 159 -25
119 -21 204 15 340 35 132 121 347 146 365 4 3 23 26 42 52 l36 47 51 -26 c46
-24 134 -106 186 -173 30 -39 37 -41 119 -30 144 21 306 -30 372 -117 l32 -42
6 30 c3 18 15 34 31 41 16 7 25 19 25 35 0 31 22 29 61 -5 27 -24 31 -33 25
-56 -4 -15 -17 -36 -29 -47 -12 -10 -40 -36 -63 -57 l-41 -38 14 -47 c14 -49
39 -79 27 -33 -10 41 13 31 38 -16 25 -50 27 -155 3 -226 -10 -29 -15 -86 -15
-179 0 -117 2 -134 15 -123 13 11 31 40 138 227 21 36 30 60 21 56 -8 -3 -14
-12 -14 -20 0 -8 -4 -11 -10 -8 -5 3 -10 -2 -10 -12 0 -10 -8 -27 -17 -38 -13
-16 -14 -17 -9 -2 17 49 18 53 7 37 -20 -28 -26 3 -24 125 2 144 14 195 55
248 48 60 104 72 128 26 9 -16 6 -21 -15 -31 -33 -15 -32 -39 5 -67 17 -12 28
-26 25 -31 -3 -6 5 -15 20 -22 71 -32 23 -170 -59 -170 -14 0 -26 -4 -26 -9 0
-5 8 -9 18 -9 9 0 43 -17 75 -37 53 -35 70 -56 71 -93 1 -18 67 -21 73 -3 2 6
-8 23 -23 36 l-27 26 26 6 c14 4 31 13 37 21 16 18 3 72 -18 77 -14 4 -13 6 6
12 25 8 46 70 56 164 6 50 4 56 -30 105 -21 28 -46 57 -57 65 -20 15 -20 47 2
104 l11 28 87 -45 88 -45 92 6 92 6 -5 37 c-4 30 -1 43 20 66 14 16 30 34 36
41 7 9 5 24 -6 52 -14 36 -14 42 0 70 16 31 46 34 46 5 0 -20 13 -17 27 5 16
26 57 24 49 -1 -20 -62 -20 -62 -1 -55 13 6 16 3 11 -9 -3 -8 -6 -28 -6 -44 0
-16 -7 -35 -15 -44 -8 -8 -15 -28 -15 -44 0 -56 64 -20 85 48 9 30 38 63 212
243 73 76 133 142 133 146 0 5 -80 28 -177 51 -98 23 -218 53 -268 67 -49 14
-144 38 -210 55 -66 16 -201 51 -300 78 -216 58 -289 73 -314 65 -10 -3 -38
-33 -61 -66 -28 -40 -47 -58 -57 -55 -18 7 -358 246 -513 360 l-115 85 -66 1
-66 0 -6 -52z m-368 -1305 c1 -21 2 -47 2 -58 -1 -11 -3 -137 -7 -280 -5 -243
0 -355 13 -341 4 3 9 70 13 148 l7 143 1 -172 c2 -188 -7 -236 -66 -341 -24
-41 -27 -44 -30 -23 -2 13 1 28 7 34 13 13 15 63 3 71 -9 5 -8 94 1 146 3 19
9 114 12 210 3 96 8 211 11 255 4 62 3 77 -6 65 -10 -13 -11 -12 -6 4 7 19 25
140 26 164 0 30 16 8 19 -25z m954 -230 c-4 -10 -22 -46 -41 -80 -18 -34 -30
-68 -26 -74 4 -7 3 -9 -2 -6 -6 3 -16 -4 -24 -16 -12 -21 -12 -21 5 -7 17 14
17 13 8 -5 -6 -11 -21 -29 -33 -40 -12 -11 -37 -48 -57 -82 -35 -64 -68 -101
-39 -45 25 49 19 60 -11 19 -28 -40 -43 -44 -22 -5 7 12 13 31 14 41 1 10 20
37 43 59 23 22 42 46 42 52 0 6 9 19 20 29 11 9 20 23 20 30 0 7 18 35 41 62
22 27 45 57 50 67 12 23 20 23 12 1z m903 -1470 c-1 -27 0 -88 2 -136 2 -83 3
-87 21 -77 31 16 33 -14 10 -110 -11 -47 -23 -97 -26 -112 -3 -16 -9 -28 -13
-28 -9 0 -30 46 -30 66 0 8 -7 17 -15 20 -8 4 -15 17 -15 30 0 14 -6 24 -15
24 -8 0 -19 9 -25 20 -6 11 -17 20 -25 20 -20 0 -20 -1 25 87 22 43 40 87 40
99 0 11 7 29 15 40 8 10 15 31 15 46 0 35 10 58 24 58 8 0 12 -17 12 -47z"/>
<path d="M10630 4023 c-831 -107 -1100 -145 -1100 -156 0 -4 21 -5 46 -1 37 5
48 2 59 -13 13 -17 14 -17 15 0 0 31 19 18 22 -15 2 -20 -3 -40 -12 -49 -8 -9
-21 -25 -29 -36 -11 -17 -19 -19 -44 -12 -20 5 -35 5 -43 -2 -7 -6 -22 -8 -34
-4 -12 4 -27 1 -35 -5 -12 -10 -15 -9 -15 4 0 13 -4 15 -19 7 -14 -8 -22 -7
-32 6 -8 9 -9 14 -3 10 7 -4 15 0 18 9 10 25 6 41 -5 21 -6 -9 -14 -15 -20
-12 -5 4 -9 -3 -9 -15 0 -40 -25 -14 -28 29 l-3 43 38 -4 c35 -5 123 23 123
38 0 6 -94 -3 -167 -17 -49 -10 -53 -12 -53 -39 0 -16 5 -32 10 -35 7 -4 8 3
4 22 -4 15 -4 25 0 22 3 -3 10 -28 15 -55 11 -57 13 -55 -79 -86 -78 -26 -106
-25 -137 4 -19 18 -28 20 -50 12 -34 -12 -55 -60 -33 -74 22 -14 -21 -13 -107
4 -56 10 -75 11 -82 2 -6 -7 -35 -22 -66 -35 -43 -18 -62 -21 -78 -14 -15 7
-33 6 -57 -2 -19 -7 -47 -10 -62 -8 -20 4 -37 -3 -65 -24 -21 -16 -47 -33 -57
-37 -14 -5 -16 -10 -9 -17 7 -7 26 0 62 26 30 22 58 35 67 31 8 -3 35 -1 59 5
37 9 47 9 60 -5 9 -9 19 -16 23 -16 21 0 141 53 137 61 -6 9 64 -11 107 -31
20 -9 37 -10 68 -2 23 6 42 6 46 1 14 -23 41 -8 50 29 8 31 13 37 34 34 13 -1
57 9 98 23 41 14 77 24 79 21 3 -3 -22 -19 -56 -35 -34 -17 -61 -36 -61 -41 0
-14 5 -13 60 15 27 14 52 25 55 25 3 0 4 -21 3 -47 l-3 -46 70 2 c76 3 96 9
71 23 -9 5 -21 6 -26 3 -9 -6 -12 -2 -14 27 -1 6 7 12 17 14 9 1 17 -2 17 -7
0 -5 7 -9 16 -9 8 0 13 4 10 8 -2 4 4 13 15 20 24 15 25 2 3 -39 l-15 -30 28
3 c23 2 27 7 25 26 -2 14 2 22 11 22 9 0 13 -8 10 -23 l-5 -23 94 8 c112 9
165 15 198 24 l25 6 -25 -14 c-20 -11 -26 -23 -28 -56 -2 -32 0 -42 12 -42 26
0 29 -21 5 -46 -27 -29 -19 -42 18 -25 21 10 28 9 34 -1 5 -7 4 -14 -1 -16
-14 -5 -12 -29 3 -35 8 -4 9 -6 0 -6 -6 -1 -19 6 -28 15 -8 9 -22 13 -30 10
-9 -3 -17 3 -21 17 -3 12 -12 29 -18 37 -7 8 -18 34 -25 58 -11 38 -15 43 -38
40 -36 -4 -50 -30 -37 -66 9 -24 8 -33 -6 -52 -11 -15 -19 -19 -24 -11 -4 6
-16 11 -27 11 -27 0 -24 20 4 21 12 0 16 3 10 6 -7 2 -13 14 -13 24 0 47 -46
78 -75 50 -20 -18 -63 -21 -69 -6 -7 20 -40 19 -57 -1 -10 -12 -10 -20 -1 -35
16 -25 15 -28 -5 -28 -10 1 -29 -3 -42 -7 -20 -6 -22 -4 -16 15 9 29 -3 61
-24 61 -9 0 -22 5 -28 11 -8 8 -18 6 -37 -7 -20 -15 -24 -25 -20 -46 4 -22 2
-26 -13 -22 -10 2 -24 0 -32 -5 -11 -7 -10 -13 5 -36 15 -23 15 -28 3 -36 -10
-6 -19 -1 -32 16 -24 33 -60 32 -77 -1 -12 -22 -12 -27 0 -34 13 -8 12 -10 -2
-10 -21 0 -42 -56 -25 -67 7 -5 21 -8 32 -8 16 0 20 -7 20 -30 0 -30 -1 -30
-59 -33 l-59 -3 6 42 c3 23 9 45 14 48 51 38 25 201 -33 201 -11 0 -29 -9 -39
-20 -18 -20 -18 -22 -2 -49 9 -16 17 -39 17 -50 0 -17 -6 -21 -31 -21 -26 0
-30 3 -26 19 3 13 -5 26 -25 41 -16 12 -27 27 -25 33 5 15 -10 47 -23 47 -16
0 -75 -93 -62 -98 7 -2 12 -19 12 -38 0 -22 6 -37 15 -40 18 -7 20 -34 3 -34
-7 0 -26 -7 -42 -15 -25 -13 -27 -13 -22 0 4 13 2 14 -14 5 -11 -6 -20 -16
-20 -23 0 -20 -20 16 -20 36 0 13 5 17 18 13 9 -3 24 -1 32 4 13 9 13 12 -2
21 -12 7 -16 18 -12 37 4 19 -1 36 -16 55 -26 32 -50 35 -57 6 -6 -21 -6 -21
-24 2 -14 19 -20 22 -30 12 -7 -7 -21 -13 -31 -13 -10 0 -18 -5 -18 -11 0 -5
-8 -9 -17 -7 -10 1 -24 -1 -31 -5 -7 -5 -24 0 -40 11 -31 22 -52 19 -52 -9 0
-10 -6 -19 -14 -19 -8 0 -17 -7 -20 -16 -4 -12 -2 -15 9 -10 8 3 15 2 15 -3 0
-5 -15 -12 -34 -15 -34 -7 -59 -36 -30 -36 8 0 12 -4 9 -10 -13 -21 -41 -9
-57 25 -8 19 -12 35 -7 35 5 0 9 -4 9 -10 0 -14 27 -13 36 1 3 6 -3 21 -15 33
-22 21 -22 21 -37 1 -12 -16 -18 -18 -34 -7 -28 17 -40 15 -66 -14 -13 -14
-28 -23 -33 -19 -5 3 0 -12 12 -34 16 -29 25 -37 34 -30 8 7 18 4 33 -11 22
-22 22 -22 2 -40 -11 -10 -30 -20 -42 -22 -19 -2 -25 3 -32 29 -4 17 -19 40
-32 50 -13 11 -26 28 -28 39 -3 15 -11 18 -37 16 -24 -2 -37 4 -50 20 -11 13
-24 19 -34 15 -20 -7 -51 -73 -43 -89 20 -39 33 -53 51 -56 41 -6 45 -11 45
-56 0 -26 -5 -46 -12 -49 -8 -3 -6 -6 5 -6 9 -1 17 -6 17 -12 0 -15 -92 -2
-102 14 -4 7 -13 12 -19 12 -7 0 -17 16 -24 35 -8 25 -24 42 -56 60 l-44 25
38 9 c36 9 37 11 31 40 -8 39 -18 50 -38 43 -18 -7 -22 -27 -6 -27 6 0 10 -5
10 -11 0 -8 -4 -8 -14 1 -8 6 -25 10 -38 9 -13 -2 -29 0 -36 4 -16 10 -54 -1
-46 -14 3 -5 10 -7 15 -4 9 6 10 5 14 -33 2 -18 -1 -21 -14 -16 -9 4 -28 7
-42 7 -17 0 -29 7 -35 21 -11 25 -40 28 -38 4 2 -23 -5 -23 -31 2 -25 23 -55
18 -55 -10 0 -10 -6 -20 -14 -23 -16 -6 -27 -65 -14 -73 5 -4 7 -13 4 -23 -5
-14 -4 -14 6 -1 9 10 33 16 69 17 35 0 67 8 83 18 15 10 30 14 34 10 4 -4 1
-10 -5 -12 -16 -6 -7 -51 15 -76 22 -25 10 -31 -16 -7 -24 23 -32 25 -32 9 0
-20 42 -50 62 -43 25 7 23 -8 -4 -33 -18 -17 -41 -23 -108 -27 l-85 -6 30 18
c35 22 62 52 47 52 -6 0 -14 -4 -17 -10 -8 -13 -85 -13 -85 -1 0 6 5 13 10 16
6 3 10 10 10 16 0 5 -8 4 -19 -3 -15 -9 -24 -7 -47 11 -15 12 -29 29 -30 38
-3 19 -22 33 -46 33 -31 0 -30 -20 1 -26 17 -4 31 -12 31 -19 0 -24 -13 -23
-43 6 -25 24 -31 37 -29 64 4 36 -17 56 -48 48 -29 -8 -33 -78 -4 -72 32 6 32
-4 0 -26 -44 -30 -42 -30 -49 -5 -7 29 -54 44 -89 29 -25 -10 -30 -9 -47 12
-16 19 -23 22 -37 13 -28 -17 -28 -34 -1 -34 23 0 71 -33 73 -51 1 -5 2 -10 4
-11 1 -2 4 -19 6 -38 4 -35 4 -34 -15 10 -11 27 -30 52 -48 62 -29 17 -30 17
-63 -10 -41 -35 -90 -33 -90 3 0 12 -7 28 -16 36 -13 10 -21 9 -47 -6 -18 -10
-36 -23 -42 -29 -5 -6 -36 -12 -68 -13 -86 -2 -91 -6 -67 -46 l21 -35 -33 7
c-28 6 -33 11 -36 39 -4 40 -31 57 -66 40 -29 -13 -34 -33 -10 -42 8 -3 12
-10 9 -16 -11 -18 -36 -11 -57 15 -22 28 -65 34 -74 10 -4 -8 -12 -15 -19 -15
-7 0 -18 -7 -25 -15 -14 -17 -81 -20 -97 -4 -14 14 -55 8 -61 -10 -3 -8 0 -11
5 -8 6 4 20 -3 32 -14 12 -12 28 -18 36 -15 8 3 12 0 9 -7 -5 -14 42 -108 60
-119 6 -4 18 -8 27 -8 9 0 33 -15 53 -34 l36 -35 -55 -6 c-62 -8 -137 2 -116
15 8 4 10 13 7 19 -4 6 -2 11 3 11 6 0 11 -4 11 -10 0 -5 5 -10 10 -10 6 0 10
9 10 20 0 18 -7 20 -55 20 -40 0 -55 -4 -55 -14 0 -7 8 -16 19 -19 14 -3 17
-11 14 -31 -3 -16 -1 -26 6 -26 7 0 9 5 6 10 -8 13 1 13 24 -2 18 -11 18 -13
-11 -49 l-30 -38 22 -30 c12 -17 25 -31 30 -31 5 0 16 -13 25 -30 9 -16 22
-30 30 -30 8 0 15 -3 15 -7 -2 -36 -162 -76 -207 -52 -18 10 -26 10 -35 1 -16
-16 -47 -15 -80 2 -24 13 -28 13 -28 1 0 -8 15 -21 34 -29 19 -8 39 -23 45
-34 14 -26 3 -55 -16 -48 -8 4 -26 9 -39 12 l-24 6 0 -376 0 -376 49 0 c42 0
56 6 115 51 75 56 65 57 144 -16 23 -22 40 -45 38 -52 -7 -18 9 -16 24 3 11
12 25 14 69 8 38 -4 53 -3 46 4 -15 15 -92 25 -100 13 -3 -6 -13 -11 -22 -11
-28 0 6 29 43 36 40 7 120 -16 116 -35 -1 -7 2 -9 8 -6 6 4 20 -1 31 -11 21
-19 27 -43 7 -27 -7 6 -24 9 -38 8 -14 -2 -50 0 -81 4 -46 6 -60 4 -78 -10
-28 -23 -27 -31 4 -19 26 10 120 3 145 -11 13 -7 13 -8 0 -9 -77 -5 -120 -4
-120 3 0 5 -7 2 -15 -7 -27 -26 -16 -32 57 -28 64 4 70 3 65 -13 -4 -9 -7 -18
-7 -21 0 -2 -12 1 -26 6 -16 7 -23 7 -19 0 3 -6 -1 -10 -10 -10 -9 0 -13 5
-10 10 4 6 -5 10 -19 10 -32 0 -34 -18 -3 -29 33 -13 112 -20 125 -12 6 3 18
29 27 56 9 28 22 64 30 80 7 17 18 62 24 100 20 121 21 123 39 118 12 -3 21 5
29 24 l11 28 -5 -32 c-5 -30 -3 -32 31 -38 20 -4 39 -11 42 -16 3 -5 12 -4 22
1 9 5 54 21 99 35 72 23 93 26 175 21 52 -3 102 -8 113 -12 13 -5 16 -4 11 4
-4 7 -2 12 4 12 7 0 9 9 5 23 -7 22 -7 22 9 2 18 -24 20 -16 4 20 -7 15 -17
24 -25 21 -8 -3 -11 -1 -8 4 11 18 25 10 47 -25 28 -48 34 -38 8 13 -12 23
-30 44 -41 47 -25 8 -15 25 14 24 30 0 122 -52 117 -64 -3 -5 -9 -9 -14 -7 -8
3 -35 -27 -36 -40 0 -5 5 -8 10 -8 6 0 10 7 10 15 0 19 7 19 26 1 23 -23 17
-28 -38 -26 -73 2 -78 2 -78 -11 0 -6 9 -9 20 -6 11 3 18 0 17 -6 -1 -6 5 -11
13 -12 20 0 80 -22 127 -45 21 -10 39 -18 39 -17 1 1 21 38 44 82 47 88 63
105 97 105 18 0 27 -8 34 -30 6 -16 16 -30 21 -30 6 0 -1 -9 -15 -20 -14 -11
-29 -20 -34 -20 -5 0 -31 -23 -58 -50 -41 -42 -47 -52 -35 -60 8 -5 71 -28
140 -51 69 -23 156 -55 194 -71 38 -15 74 -28 80 -28 31 0 99 161 78 182 -7 7
-7 18 0 34 8 17 8 27 -2 39 -13 16 -7 45 9 45 6 0 8 -7 5 -15 -9 -22 1 -19 57
22 50 36 52 36 66 17 11 -14 14 -37 10 -84 -3 -52 -11 -77 -41 -125 -20 -33
-36 -63 -36 -66 0 -3 11 -11 24 -17 23 -10 25 -9 31 18 3 16 13 34 20 40 24
20 55 118 55 175 0 60 -22 95 -61 95 -11 0 -27 6 -35 14 -12 13 -12 15 4 18 9
2 26 1 37 -3 11 -4 32 -10 46 -13 27 -6 114 -89 135 -129 7 -13 16 -66 20
-119 7 -95 6 -97 -25 -150 -50 -86 -49 -85 -62 -68 -8 12 -9 10 -4 -7 3 -13 2
-31 -4 -40 -10 -17 -10 -16 -11 3 0 23 -57 114 -71 114 -4 0 -6 -6 -4 -13 2
-7 -24 -29 -60 -52 -35 -22 -65 -44 -65 -50 0 -5 -4 -4 -9 4 -7 11 -13 10 -32
-9 -22 -20 -32 -21 -106 -18 -66 3 -87 8 -105 25 -13 12 -45 31 -73 43 -27 12
-58 26 -67 31 -10 5 -35 9 -55 9 -27 0 -34 3 -23 10 17 10 16 11 -24 29 -26
11 -28 10 -16 -3 27 -34 -8 -14 -44 24 -21 22 -46 40 -56 40 -10 0 -22 5 -25
10 -3 6 -13 10 -22 10 -12 0 -13 -3 -4 -14 10 -12 8 -13 -8 -9 -11 3 -26 12
-33 20 -10 12 -9 17 5 24 26 15 21 26 -23 55 -33 22 -45 25 -63 16 -12 -6 -29
-11 -37 -11 -49 -1 -117 -9 -133 -15 -19 -9 -50 10 -41 25 2 5 -7 11 -22 15
-29 7 -41 -4 -51 -49 -7 -34 -21 -44 -30 -21 -6 16 -1 26 35 81 8 13 10 23 6
23 -13 -1 -84 -96 -84 -112 0 -7 -6 -22 -14 -33 -13 -19 -14 -70 -1 -83 3 -3
16 0 28 7 19 12 20 12 10 0 -10 -12 -8 -17 9 -28 19 -12 23 -11 38 9 12 16 19
19 22 10 2 -8 12 -10 25 -6 14 4 20 12 16 22 -3 7 0 14 6 14 6 0 11 10 11 23
1 31 21 54 55 63 l28 7 -6 -47 c-4 -28 -2 -56 4 -68 6 -12 7 -23 2 -27 -5 -3
-24 -42 -43 -86 -18 -44 -38 -86 -43 -92 -16 -22 11 -15 32 8 l20 21 83 -34
c46 -20 104 -43 130 -52 43 -16 54 -33 35 -53 -4 -4 27 -15 70 -24 137 -30
178 -41 190 -51 12 -9 75 -24 208 -48 28 -5 239 -50 470 -100 231 -50 465
-100 520 -111 55 -11 110 -24 123 -29 15 -7 30 -7 41 0 13 7 72 -2 207 -31
260 -56 253 -55 294 -27 19 13 49 45 65 71 17 25 35 45 40 43 14 -5 48 14 139
74 73 48 80 51 107 40 28 -12 31 -10 74 33 24 26 41 48 37 51 -4 2 -50 7 -102
11 -115 7 -140 12 -140 26 0 6 8 8 18 5 9 -3 49 -8 87 -11 39 -3 94 -8 123
-11 47 -5 57 -3 78 17 22 20 25 21 41 7 49 -42 107 -54 366 -74 48 -3 87 -11
87 -17 0 -6 -17 -7 -47 -3 -27 4 -93 9 -148 12 -114 5 -111 -4 10 -31 128 -29
359 -106 310 -104 -19 0 -100 25 -120 35 -32 18 -73 25 -80 14 -3 -5 1 -10 9
-10 16 0 16 -18 1 -53 -6 -14 -16 -16 -58 -13 -29 3 -56 11 -62 19 -15 20 -55
28 -55 11 0 -10 -12 -14 -45 -12 -25 1 -48 4 -50 8 -2 4 -20 7 -40 8 -47 2
-42 -22 6 -27 29 -3 31 -5 14 -12 -14 -7 -8 -8 21 -4 27 3 47 0 60 -10 18 -13
16 -14 -20 -15 l-38 0 23 -20 c30 -24 8 -27 -44 -5 -49 20 -61 19 -93 -8 -23
-21 -25 -26 -14 -44 33 -52 140 -97 310 -130 101 -19 118 -38 43 -49 -27 -3
-55 -10 -63 -15 -38 -20 61 -25 115 -5 18 7 18 6 3 -4 -26 -16 -22 -30 10 -30
15 0 59 -7 97 -15 39 -9 131 -27 205 -42 74 -14 139 -29 144 -34 6 -5 2 -16
-8 -28 -23 -25 -13 -41 23 -41 22 0 31 7 41 30 14 34 9 33 82 20 49 -9 60 -8
89 9 34 19 35 19 172 -5 76 -13 182 -33 235 -45 53 -11 129 -27 167 -34 39 -7
81 -16 95 -19 37 -9 71 25 124 121 44 80 57 137 29 126 -9 -4 -13 5 -13 26 0
51 -36 111 -70 118 -17 3 -30 12 -30 19 0 8 -5 14 -11 14 -6 0 -9 -3 -7 -7 28
-59 58 -127 58 -134 0 -8 -72 -49 -85 -49 -4 0 -3 9 0 20 4 14 -3 37 -21 68
-30 51 -54 79 -54 63 0 -5 5 -13 10 -16 17 -11 52 -86 46 -101 -3 -8 -13 -14
-23 -14 -14 0 -15 -2 -4 -9 11 -7 9 -10 -8 -16 -27 -8 -41 1 -41 27 0 11 -8
27 -17 35 -31 23 -93 52 -93 42 0 -6 -4 -8 -9 -4 -5 3 -12 1 -16 -5 -4 -6 -11
-8 -16 -4 -5 3 -16 0 -25 -6 -11 -10 -12 -16 -3 -26 9 -11 7 -14 -10 -14 -16
0 -21 6 -21 26 0 19 8 29 33 39 17 8 50 31 72 51 56 51 183 102 229 90 32 -8
43 4 48 58 3 27 11 52 18 56 9 5 9 9 1 11 -15 5 104 129 124 129 9 0 13 -4 10
-10 -3 -5 1 -10 9 -10 9 0 16 -3 16 -7 0 -13 51 -32 67 -26 11 4 14 2 9 -5 -4
-7 6 -18 23 -27 27 -14 30 -14 25 0 -4 10 16 4 64 -20 101 -52 277 -88 402
-83 82 3 102 8 150 33 l55 30 3 733 c1 402 -1 732 -5 732 -5 0 -16 7 -26 14
-16 12 -17 18 -6 38 11 22 11 22 -7 6 -17 -14 -31 -16 -107 -9 -89 8 -111 16
-88 30 7 5 12 10 11 12 -1 2 3 17 9 32 6 16 11 33 11 38 0 10 -43 2 -73 -13
-33 -17 -30 0 7 39 20 21 36 43 36 48 0 6 4 16 9 24 16 25 41 -12 41 -59 0
-54 19 -49 41 11 18 48 37 57 82 40 16 -6 27 -18 27 -30 0 -16 18 -31 36 -31
2 0 4 95 4 211 l0 211 -52 -7 c-29 -3 -66 -8 -81 -11 l-28 -6 6 54 c12 114 14
133 9 121 -3 -7 -19 -13 -36 -13 -27 0 -30 -2 -24 -26 8 -31 -1 -64 -17 -64
-7 0 -21 8 -32 17 -20 15 -20 15 3 10 15 -3 22 -1 22 9 0 8 -11 15 -25 16 -14
0 -31 1 -37 2 -7 1 -12 -5 -10 -13 1 -7 -2 -19 -8 -26 -8 -10 -7 -14 7 -18 14
-3 11 -6 -10 -12 -22 -6 -33 -3 -50 13 -24 21 -47 19 -47 -4 0 -7 -11 -16 -25
-19 -14 -3 -36 -7 -50 -10 -20 -4 -32 2 -56 30 -17 19 -37 35 -45 35 -8 0 -14
5 -14 10 0 14 4 13 42 -9 26 -14 37 -16 52 -7 14 9 21 7 33 -11 15 -23 33 -30
33 -15 0 21 -40 54 -60 49 -11 -3 -23 -1 -26 5 -4 6 -10 5 -15 -3 -5 -8 -9 -9
-9 -4 0 14 -52 18 -61 4 -3 -6 -9 1 -11 15 -5 26 -4 26 48 24 35 -2 54 -7 54
-16 0 -9 4 -10 18 -1 20 12 104 3 86 -9 -6 -4 -14 -16 -17 -26 -7 -17 -6 -17
10 -5 41 32 57 73 32 81 -9 3 -9 9 0 25 15 28 14 49 -2 65 -7 7 -22 27 -32 45
-15 25 -22 30 -36 22 -25 -13 -29 -12 -29 11 0 12 5 17 14 14 9 -3 16 4 20 22
6 21 1 33 -19 54 -15 15 -28 43 -31 61 -10 73 -13 79 -43 79 -15 0 -40 -9 -55
-21 -20 -16 -26 -17 -26 -6 0 8 -6 20 -14 26 -7 6 -11 21 -9 34 6 34 -8 46
-60 48 -59 3 -77 -13 -85 -76 -4 -37 -10 -48 -27 -55 -13 -5 -26 -14 -30 -20
-5 -8 -11 -8 -21 1 -17 14 -23 10 -26 -21 -2 -16 4 -27 19 -35 29 -15 63 -46
63 -57 0 -16 -18 -8 -49 21 -41 38 -73 50 -65 24 5 -17 5 -17 -6 -1 -14 22 -3
65 18 73 16 6 16 7 0 16 -10 6 -18 22 -18 37 0 15 -9 38 -20 52 -11 14 -20 31
-20 38 0 22 -25 12 -43 -17 -11 -19 -27 -31 -45 -33 -19 -2 -31 -12 -42 -35
-19 -42 -27 -42 -22 1 3 27 0 37 -18 46 -17 9 -26 8 -47 -5 -21 -14 -24 -22
-18 -51 5 -31 3 -35 -22 -45 -15 -6 -36 -18 -46 -27 -15 -13 -22 -14 -37 -4
-28 17 -37 15 -44 -10 l-7 -23 -11 23 c-11 22 -38 31 -38 12 0 -6 7 -22 17
-36 15 -23 15 -26 0 -41 -15 -16 -16 -15 -16 13 0 16 -2 41 -6 56 -5 20 -2 31
16 49 21 21 23 21 36 4 12 -17 13 -15 13 17 0 42 -11 53 -39 39 -14 -8 -22 -7
-31 4 -18 22 -36 18 -58 -10 -24 -30 -32 -31 -32 -6 0 23 -31 35 -61 26 -15
-5 -19 -4 -15 4 4 6 30 11 59 10 62 -1 155 7 307 26 19 3 60 7 90 11 111 11
123 14 146 29 27 17 38 19 29 5 -3 -6 4 -10 16 -10 12 0 20 3 16 6 -3 4 1 20
9 36 9 16 13 36 10 44 -3 7 1 17 9 21 7 5 15 22 17 38 3 29 5 30 53 32 28 0
58 4 69 9 19 7 19 7 -1 -58 -4 -13 -6 -30 -5 -39 3 -15 -23 -29 -55 -29 -20 0
-15 23 7 43 19 16 28 47 13 47 -17 -1 -51 -37 -67 -72 -9 -20 -21 -40 -26 -43
-22 -14 -10 -35 20 -35 34 0 38 7 13 26 -24 17 -10 29 15 13 15 -10 25 -9 50
4 31 15 50 8 37 -13 -7 -11 8 -13 85 -10 30 1 63 6 72 11 13 7 18 6 16 -3 -2
-7 6 -13 17 -14 58 -3 57 -3 53 -34 -3 -16 0 -30 5 -30 6 0 7 -3 4 -7 -4 -3 2
-13 13 -20 15 -11 47 -14 123 -12 144 4 144 4 152 86 8 81 14 105 24 98 10 -6
29 58 34 118 l5 48 -347 -4 c-190 -1 -357 -7 -370 -12 -17 -6 -22 -5 -17 3 10
17 -695 17 -712 0 -8 -8 -15 -8 -25 0 -16 13 -256 13 -274 0 -7 -5 -14 -5 -18
2 -9 14 -38 13 -32 -2 10 -29 -11 -44 -64 -46 -29 -1 -58 -7 -65 -13 -9 -8
-15 -5 -23 10 -19 35 -4 51 48 50 25 -1 38 -3 29 -6 -31 -8 -19 -22 17 -20 40
2 43 7 14 25 -19 12 -153 15 -229 5z m578 -343 c-10 -15 -10 -27 -1 -50 15
-39 2 -39 -20 0 -32 54 -110 26 -139 -51 -11 -28 -17 -36 -17 -23 -1 28 -22
45 -48 38 -20 -6 -103 23 -103 35 0 3 -11 7 -25 7 -19 2 -27 -4 -31 -22 -5
-21 -8 -22 -21 -9 -18 18 -18 18 -72 -1 -24 -8 -44 -13 -45 -12 -1 2 -9 15
-18 29 l-17 27 72 7 c40 3 86 8 102 10 17 2 68 6 115 9 47 3 123 9 170 12 47
3 87 8 89 10 13 13 19 1 9 -16z m-938 -86 c-5 -13 -6 -24 -3 -24 4 0 2 -5 -5
-12 -7 -7 -12 -20 -12 -30 0 -14 7 -17 37 -15 30 2 38 -2 41 -18 7 -43 12 -51
22 -35 17 26 12 -34 -6 -68 -16 -33 -28 -44 -18 -17 4 11 2 13 -9 9 -8 -3 -29
2 -46 10 -16 9 -41 16 -55 16 -27 0 -43 15 -26 25 5 3 10 17 10 31 0 14 6 27
14 30 15 6 12 18 -17 82 -12 25 -45 30 -53 7 -4 -10 -20 -15 -45 -15 -24 0
-42 -6 -51 -17 -7 -10 -21 -24 -31 -32 -15 -12 -20 -11 -37 4 -27 24 -54 3
-48 -37 3 -18 0 -28 -8 -28 -9 0 -12 15 -10 50 1 33 -2 51 -11 54 -21 8 -15
22 10 23 12 0 67 4 122 9 55 4 121 8 148 9 26 0 47 3 47 6 0 4 11 7 24 7 22 0
23 -3 16 -24z m1530 -69 c0 -9 -7 -29 -15 -45 -14 -27 -14 -30 4 -39 30 -16
101 -25 101 -13 0 6 -5 14 -12 18 -7 4 -8 3 -4 -4 11 -18 -10 -14 -24 3 -19
23 3 43 24 23 8 -9 27 -14 43 -12 15 2 21 1 12 -2 -29 -9 -31 -44 -3 -56 27
-13 32 -33 8 -42 -8 -3 -12 -10 -9 -16 10 -16 -6 -12 -27 6 -14 14 -20 14 -33
4 -17 -14 -20 -37 -4 -42 7 -2 7 -12 -1 -32 -14 -37 -7 -43 25 -22 49 32 57
17 25 -47 -27 -56 -28 -58 -9 -70 23 -14 25 -27 4 -27 -8 0 -15 5 -15 10 0 6
-4 10 -10 10 -5 0 -10 -24 -10 -53 0 -30 -3 -56 -6 -59 -3 -4 -17 0 -31 7 -30
16 -45 11 -36 -11 4 -10 -7 -19 -36 -31 -22 -9 -41 -20 -41 -26 0 -5 -7 -7
-15 -3 -19 7 -19 1 0 -28 12 -18 14 -38 9 -90 -4 -36 -11 -63 -16 -60 -16 10
-38 -5 -32 -21 4 -9 13 -14 20 -11 8 3 14 0 14 -6 0 -7 -15 -9 -46 -4 -26 3
-107 6 -180 6 l-133 0 -6 48 c-3 26 -8 64 -11 86 -4 36 -3 38 20 32 15 -4 28
0 36 9 7 8 23 15 37 15 22 0 23 3 17 38 -4 20 -11 39 -15 40 -14 6 -10 29 6
36 8 3 15 12 15 20 0 10 -6 13 -15 10 -8 -4 -17 1 -21 10 -3 9 -12 16 -18 16
-7 0 -13 13 -13 30 0 45 -13 53 -61 36 -37 -13 -42 -13 -42 -1 0 8 4 15 9 15
4 0 6 11 4 23 -8 43 64 87 127 78 8 -1 22 -2 31 -2 19 -1 53 -88 43 -112 -3
-9 -3 -17 1 -17 15 0 108 74 97 78 -8 2 -8 10 0 27 11 25 43 24 34 -1 -8 -20
1 -17 31 10 20 19 24 30 19 50 -8 34 2 34 14 0 16 -41 45 -28 47 21 1 22 9 66
18 98 12 43 13 62 5 72 -12 15 3 31 20 20 6 -3 10 -1 10 4 0 6 5 11 10 11 6 0
10 -7 10 -15z m-810 -70 c23 7 28 -10 5 -19 -21 -8 -19 -29 3 -24 13 4 18 -1
19 -15 1 -10 9 -27 17 -36 24 -26 19 -34 -8 -16 -23 16 -24 15 -19 -4 5 -21
-5 -28 -81 -55 -16 -5 -8 -12 40 -35 32 -15 65 -36 73 -45 12 -15 29 -17 101
-14 48 2 87 0 88 -5 1 -4 -89 -8 -201 -9 -198 -2 -204 -2 -233 21 -28 22 -28
22 -4 16 77 -20 186 -11 120 10 -25 8 -52 62 -41 84 11 22 7 79 -7 93 -7 7
-12 17 -12 23 0 16 92 44 107 33 7 -5 21 -7 33 -3z m-1390 -62 c0 -5 -7 -17
-15 -27 -31 -40 -16 -44 55 -15 79 32 140 31 140 -2 0 -16 -6 -18 -44 -13 -38
6 -47 3 -76 -23 -25 -22 -33 -39 -37 -76 -3 -26 -9 -47 -13 -47 -12 0 -36 34
-50 70 -7 19 -19 40 -26 46 -8 6 -15 26 -16 45 -3 30 0 34 27 40 43 10 55 10
55 2z m254 -178 c4 -26 15 -50 26 -58 16 -11 17 -17 7 -56 -11 -39 -14 -42
-37 -35 -52 15 -143 7 -186 -17 -35 -19 -43 -30 -55 -71 -7 -27 -16 -51 -21
-54 -7 -5 -4 -21 12 -59 5 -11 13 -41 18 -67 l10 -48 -58 0 c-55 0 -58 1 -53
23 4 18 3 19 -6 7 -9 -13 -15 -8 -13 11 2 16 -63 18 -91 4 -17 -8 -36 -15 -42
-15 -15 0 -30 33 -17 38 5 1 18 10 28 18 16 13 15 13 -13 -1 -45 -21 -60 -19
-38 5 16 18 16 20 2 20 -10 0 -20 -14 -26 -37 -14 -50 -14 -63 2 -57 8 3 20
-2 27 -11 12 -14 -2 -15 -136 -13 l-149 3 -3 63 c-2 39 2 69 9 78 6 8 9 17 6
20 -3 3 -10 -4 -17 -15 -12 -23 -30 -28 -30 -8 0 7 -13 34 -29 59 -20 31 -28
54 -24 68 5 20 11 21 47 16 27 -4 50 -16 67 -35 27 -29 93 -48 105 -30 3 5 24
21 45 35 40 25 74 25 92 0 5 -6 5 -1 2 12 -4 13 -2 22 4 22 20 0 12 -71 -10
-91 -23 -20 -18 -42 7 -32 9 3 19 0 24 -6 5 -9 11 -8 24 4 9 10 20 15 23 11 3
-3 12 -1 20 5 9 9 13 8 13 0 0 -6 -4 -12 -10 -12 -5 -1 -15 -2 -22 -3 -6 0
-13 -6 -15 -11 -6 -18 48 -11 58 8 16 27 26 20 22 -15 -3 -32 0 -28 19 22 9
23 10 24 22 8 16 -22 36 -23 36 -3 0 8 -6 15 -14 15 -8 0 -16 7 -20 15 -3 8
-12 15 -21 15 -12 0 -11 6 5 35 24 43 25 58 5 75 -12 10 -15 9 -16 -6 -1 -11
-5 -4 -9 15 -10 40 -5 58 16 58 13 0 13 -2 0 -15 -14 -14 -12 -19 19 -49 19
-18 44 -33 55 -33 19 0 21 5 18 37 -3 34 -1 37 32 45 19 5 44 12 55 17 11 5
55 19 98 32 l79 23 -5 33 c-4 23 -2 33 7 33 9 0 16 -18 20 -45z m188 5 c11 0
23 -12 29 -27 23 -57 32 -72 41 -67 4 3 8 -2 8 -11 0 -8 -6 -18 -14 -21 -8 -3
-16 -18 -19 -33 -5 -25 -37 -41 -37 -19 0 5 -10 6 -22 2 -20 -6 -21 -5 -9 10
12 14 11 16 -3 16 -9 0 -16 -4 -16 -9 0 -5 -6 -11 -14 -14 -11 -5 -14 3 -13
31 2 32 -1 37 -21 40 -20 3 -23 8 -18 28 5 17 2 24 -9 24 -17 0 -19 9 -5 30
11 18 82 40 95 28 5 -4 17 -8 27 -8z m603 -37 c22 1 32 -4 40 -20 6 -14 19
-23 32 -23 12 0 30 -12 41 -27 19 -26 22 -27 106 -24 59 2 86 -1 86 -9 0 -13
-247 -13 -256 1 -3 5 6 9 20 9 52 0 24 17 -29 19 -30 0 -58 1 -62 2 -24 4 -43
-3 -43 -15 0 -8 -13 -16 -31 -18 -43 -7 -57 22 -32 65 14 24 27 33 51 35 18 2
32 9 32 15 0 9 2 9 8 0 4 -7 21 -11 37 -10z m-1984 -27 c25 -8 57 -12 72 -9
22 4 27 2 27 -15 0 -45 10 -52 70 -52 60 0 70 -7 70 -52 0 -17 -4 -19 -39 -13
-24 4 -42 2 -46 -4 -3 -6 -15 -11 -25 -11 -11 0 -33 -13 -50 -30 -30 -30 -73
-40 -85 -20 -3 6 -20 8 -38 4 l-31 -5 22 24 c12 13 20 26 17 29 -3 3 -7 31 -9
62 -3 31 -9 63 -15 70 -7 9 -7 16 1 24 7 7 12 12 13 12 0 0 21 -6 46 -14z
m-348 -126 c14 -11 28 -29 32 -39 4 -15 13 -17 54 -13 45 4 49 2 56 -19 11
-40 34 -86 48 -97 8 -7 13 -22 11 -34 -1 -13 -3 -27 -3 -33 -1 -5 -10 1 -21
15 -11 14 -17 33 -14 42 3 10 0 26 -6 38 -9 17 -14 18 -31 9 -19 -9 -20 -8
-14 10 5 17 2 21 -14 21 -30 0 -51 -11 -51 -26 0 -8 10 -14 25 -14 15 0 25 -6
25 -14 0 -7 7 -19 15 -26 8 -7 15 -16 15 -20 0 -4 -35 -24 -77 -45 -43 -20
-86 -41 -96 -46 -10 -6 -22 -7 -27 -4 -5 3 -11 1 -15 -5 -3 -5 -2 -10 3 -10 5
0 12 -8 16 -17 3 -10 15 -33 26 -50 11 -18 16 -33 12 -33 -4 0 -18 18 -32 40
-13 22 -28 40 -32 40 -4 0 -8 6 -8 13 0 8 -11 24 -25 37 -22 21 -35 24 -87 22
-39 -1 -75 -9 -101 -22 l-39 -21 23 30 c19 23 31 30 56 29 41 -2 50 7 31 29
-36 41 -32 59 24 99 75 53 77 56 43 54 -47 -3 -52 0 -26 14 13 7 38 11 56 9
23 -2 42 5 71 26 47 36 45 36 77 11z m1919 -64 c6 -10 17 -14 31 -11 12 3 40
-1 62 -9 l40 -15 -50 6 c-49 6 -50 6 -33 -14 18 -20 36 -83 24 -83 -15 0 -32
26 -28 40 2 8 -12 -1 -31 -20 -19 -19 -32 -42 -30 -50 3 -9 0 -8 -7 3 -6 10
-9 24 -7 31 3 8 0 19 -6 26 -10 10 -7 11 13 7 19 -5 29 -1 39 15 17 27 2 42
-43 40 -29 -1 -33 1 -29 18 6 22 -9 27 -24 8 -5 -7 -14 -30 -20 -50 -9 -31 -9
-38 3 -38 11 0 9 -8 -8 -30 -21 -29 -47 -43 -32 -17 4 6 3 8 -1 4 -13 -11 -15
-36 -4 -43 5 -3 9 -1 9 4 0 5 9 12 21 15 14 4 19 2 16 -7 -12 -30 78 -44 286
-45 64 -1 107 -5 107 -11 0 -12 -326 -14 -334 -1 -3 4 -27 11 -53 15 -107 14
-210 56 -140 56 12 0 32 3 45 6 l23 7 -22 20 c-21 20 -22 20 -35 2 -15 -20
-16 -20 -33 12 -16 30 -16 30 36 31 55 0 73 18 73 69 l0 34 66 -4 c48 -4 70
-9 76 -21z m1743 -92 c7 -3 11 -14 8 -27 -5 -22 -5 -22 10 -2 15 19 17 18 70
-37 60 -61 79 -98 53 -98 -9 0 -16 -5 -16 -10 0 -6 -12 -9 -27 -8 -16 2 -28
-1 -27 -7 1 -18 59 -134 67 -135 4 0 13 11 19 25 7 16 19 25 34 25 50 0 28
-41 -30 -54 l-29 -7 22 -20 c20 -18 23 -19 52 -4 36 19 38 18 45 -27 6 -34 5
-35 -37 -46 -130 -33 -213 -40 -226 -19 -4 7 -20 18 -35 24 -16 7 -28 17 -28
23 0 5 -7 10 -16 10 -14 0 -14 -2 0 -22 22 -30 20 -41 -4 -28 -20 11 -30 -3
-10 -15 18 -11 10 -25 -14 -25 -14 0 -37 11 -51 24 -33 31 -28 44 66 174 59
82 81 104 119 122 61 29 66 64 14 99 -19 13 -34 32 -34 42 0 41 -19 26 -30
-24 -19 -84 -33 -95 -128 -99 -45 -2 -82 0 -82 5 0 4 33 7 73 7 l73 0 22 45
c12 25 22 49 22 54 0 5 8 26 17 47 15 34 17 36 21 16 2 -13 9 -25 17 -28z
m-4606 -43 c8 -5 9 -11 3 -15 -14 -9 -4 -90 24 -180 13 -44 24 -90 24 -102 0
-35 -55 -54 -151 -54 l-79 0 40 -36 c23 -21 45 -52 52 -75 13 -44 17 -45 58
-24 30 15 30 15 30 -14 0 -16 -4 -33 -10 -36 -5 -3 -10 -13 -10 -21 0 -18 87
-57 112 -51 25 7 39 -15 32 -52 -4 -20 -3 -31 5 -31 6 0 11 5 11 10 0 6 7 10
15 10 10 0 15 -10 15 -32 0 -17 8 -40 18 -51 17 -20 16 -20 -13 -12 -16 4 -61
7 -98 6 -110 -4 -176 8 -188 33 -9 19 -9 19 4 4 12 -15 31 -18 106 -18 86 0
118 11 69 24 -13 3 -54 37 -93 76 -62 63 -68 72 -52 81 15 9 16 13 5 26 -7 9
-12 17 -10 17 2 1 -1 12 -6 25 -7 19 -10 21 -15 8 -5 -13 -51 -18 -61 -6 -1 2
-19 31 -39 65 -20 33 -65 87 -100 120 -60 55 -64 62 -66 106 l-1 47 52 10 c29
5 73 13 98 17 25 3 50 11 57 16 15 12 80 6 73 -7 -3 -5 -20 -9 -37 -7 -38 4
-38 3 -18 -44 13 -31 18 -35 47 -32 33 3 33 4 34 58 1 30 6 56 13 58 12 4 15
62 3 62 -4 0 -13 -5 -20 -12 -13 -13 -16 -1 -6 26 7 17 50 21 73 7z m1156
-122 c30 -28 59 -48 65 -44 23 14 110 -29 160 -79 64 -66 117 -131 125 -156 4
-11 11 -20 17 -20 6 0 7 8 3 18 -4 9 -12 29 -17 45 -5 15 -13 27 -18 27 -11 0
-7 32 9 59 9 17 16 20 24 12 15 -15 27 -14 27 4 0 8 9 24 21 36 23 23 50 82
47 101 -2 8 5 12 19 10 12 -2 24 1 27 7 15 24 120 -28 142 -71 l16 -32 20 27
c27 37 47 34 93 -14 52 -54 93 -72 131 -57 30 11 42 6 181 -70 31 -17 38 -35
23 -61 -9 -18 -20 -21 -81 -21 -44 0 -68 4 -64 10 3 6 25 10 48 10 35 1 39 2
23 11 -10 6 -69 13 -132 15 -95 3 -114 1 -114 -11 0 -18 -33 -21 -145 -10 -16
1 -38 6 -47 10 -25 10 -22 -7 3 -23 18 -12 20 -20 15 -60 -4 -26 -10 -99 -14
-163 -6 -83 -13 -124 -25 -143 -18 -26 -47 -36 -47 -14 0 6 -3 8 -7 4 -4 -4
-8 -13 -8 -19 0 -15 -20 -16 -20 -1 0 7 -11 21 -25 33 -21 17 -22 20 -7 21 9
0 17 5 17 10 0 7 -6 7 -20 0 -22 -12 -28 -50 -7 -50 7 0 13 -9 13 -20 0 -19
-1 -19 -22 1 -12 11 -30 35 -40 54 -15 29 -22 33 -44 28 -36 -8 -40 -12 -40
-35 0 -19 -4 -20 -47 -15 -31 3 -53 12 -64 26 -10 12 -21 21 -26 21 -34 2 -85
92 -64 113 7 7 12 8 11 2 -6 -29 1 -46 18 -43 19 3 46 -21 75 -64 12 -19 22
-25 35 -21 23 9 46 33 38 40 -3 4 1 14 9 23 8 9 16 36 17 61 1 30 8 49 22 62
21 19 21 19 -6 3 -26 -15 -27 -15 -46 19 -18 29 -19 35 -6 46 20 16 18 30 -3
22 -16 -6 -16 -5 -4 10 9 11 11 26 5 44 -4 16 -8 33 -8 38 -1 6 -11 14 -23 20
-12 5 -24 17 -26 27 -8 29 -86 19 -122 -15 -7 -6 -22 -19 -34 -27 -28 -19 -27
-28 4 -26 14 0 25 5 25 9 0 11 20 30 44 44 16 9 27 4 63 -23 56 -43 73 -60 73
-73 0 -6 -6 -11 -13 -11 -7 0 -38 -26 -68 -57 -31 -32 -90 -91 -132 -132 -42
-40 -77 -75 -77 -76 0 -2 9 -5 20 -7 31 -5 19 -23 -15 -23 -26 0 -79 -21 -65
-26 3 -1 61 -7 130 -13 l125 -12 -39 -17 c-22 -9 -37 -20 -34 -23 3 -3 72 -9
153 -14 81 -5 173 -14 204 -20 31 -5 202 -19 381 -31 179 -11 345 -23 370 -26
47 -5 89 -27 76 -40 -9 -10 -109 -6 -296 12 -85 8 -213 19 -285 25 -71 6 -195
18 -275 26 -80 9 -253 23 -385 33 -195 14 -246 21 -268 36 -24 15 -41 17 -122
11 -53 -3 -96 -2 -99 3 -10 16 22 21 100 15 l76 -5 -53 50 c-40 38 -50 53 -41
63 6 7 12 27 14 43 3 26 0 30 -22 30 -23 0 -25 4 -28 55 -3 70 -10 100 -23
100 -6 0 -7 -14 -3 -37 l7 -38 -25 25 -24 25 27 40 c15 22 51 63 80 91 30 28
102 101 161 162 59 62 112 112 118 112 6 0 35 -23 65 -51z m2721 6 c69 -43
102 -56 89 -35 -4 6 -11 8 -16 5 -17 -11 -9 12 12 31 17 16 22 16 29 4 6 -8
10 -20 10 -26 0 -6 7 -17 15 -24 8 -7 15 -21 15 -31 0 -10 22 -33 56 -56 30
-21 63 -43 72 -50 15 -10 14 -13 -10 -22 -41 -15 -34 -24 13 -18 34 4 40 3 37
-11 -2 -10 -13 -18 -25 -20 -11 -2 -23 -12 -26 -23 -4 -16 -10 -19 -28 -14
-23 7 -23 7 -7 -16 11 -16 25 -23 42 -22 14 1 26 -3 26 -9 0 -14 -73 -3 -78
12 -2 5 -10 10 -18 10 -8 0 -19 11 -24 25 -5 14 -15 25 -21 25 -6 0 -9 -6 -6
-14 4 -11 -11 -10 -81 6 -48 10 -99 21 -114 25 -16 3 -28 8 -28 12 -6 104 -12
138 -30 161 -42 52 -45 68 -20 95 13 14 28 25 33 25 6 0 43 -20 83 -45z
m-4506 -229 c0 -2 -16 -20 -36 -40 -29 -29 -35 -42 -32 -68 2 -20 8 -32 16
-30 11 2 17 -37 14 -88 0 -8 9 -28 21 -45 14 -18 21 -41 19 -57 -3 -23 -8 -28
-30 -28 -15 0 -43 8 -62 19 -46 24 -164 36 -156 15 6 -17 6 -17 -179 -1 -145
13 -152 16 -206 71 -18 19 -18 20 13 43 18 12 34 27 37 31 3 5 16 11 29 14 16
5 22 2 22 -9 0 -14 2 -14 18 0 21 19 58 22 96 7 20 -7 26 -6 26 4 0 7 -3 16
-7 19 -3 4 -8 22 -10 41 l-3 33 172 35 c161 33 238 44 238 34z m4590 -65 c45
-21 62 -57 54 -111 -5 -28 -10 -37 -15 -28 -7 10 -9 9 -9 -4 0 -9 -16 -31 -35
-50 -27 -24 -34 -39 -30 -55 3 -12 1 -24 -4 -27 -5 -3 -7 -15 -4 -25 3 -11 0
-27 -5 -37 -6 -11 -7 -27 -1 -41 5 -15 5 -23 -2 -23 -6 0 -6 -7 1 -20 8 -16 8
-20 -2 -18 -13 3 -13 -3 -6 -62 2 -17 -2 -25 -12 -25 -9 0 -15 10 -16 22 -2
30 -54 99 -64 84 -4 -7 -11 3 -17 23 -9 30 -9 34 6 28 9 -3 27 -19 41 -34 28
-32 46 -37 30 -8 -8 14 -8 26 1 41 6 13 7 24 2 28 -14 9 -9 56 10 85 35 53 15
47 -28 -9 -32 -40 -44 -64 -39 -77 6 -19 4 -19 -25 -4 -16 9 -42 16 -56 16
-25 0 -26 -1 -9 -17 24 -24 74 -104 74 -117 -1 -19 -50 44 -50 64 0 10 -13 28
-30 40 -16 12 -30 17 -30 11 0 -5 4 -12 9 -15 13 -9 83 -137 77 -143 -9 -10
-22 7 -50 61 -16 31 -34 56 -42 56 -7 0 -11 -6 -8 -14 4 -10 -4 -16 -25 -21
-30 -6 -30 -7 -28 -66 1 -32 5 -59 9 -59 4 0 8 -5 8 -10 0 -6 10 -24 22 -40
27 -37 71 -40 102 -7 22 24 10 23 226 19 93 -2 82 -18 -20 -27 -88 -8 -209
-32 -167 -34 16 -1 26 -5 23 -9 -3 -5 -59 -3 -125 3 -66 7 -135 10 -153 9
l-33 -3 30 8 30 7 -30 6 c-69 15 -145 19 -145 9 0 -6 19 -11 43 -12 36 -1 38
-2 17 -9 -16 -5 -19 -8 -8 -9 29 -2 68 -24 68 -38 0 -8 -6 -13 -12 -10 -7 2
-24 0 -38 -5 -14 -6 -72 -11 -129 -12 l-104 -2 -35 35 c-24 23 -31 36 -22 39
20 7 -29 30 -51 25 -11 -3 -15 -11 -12 -20 4 -11 2 -14 -8 -11 -9 3 -13 15
-11 31 3 24 0 27 -27 27 -17 0 -31 5 -31 10 0 6 11 10 24 10 14 0 28 5 31 10
3 6 -3 10 -14 10 -12 0 -21 5 -21 10 0 16 32 12 52 -7 21 -19 37 -10 17 9 -8
7 -31 21 -51 30 -21 10 -38 22 -38 28 0 14 17 13 22 -2 3 -8 20 -1 47 21 l42
34 82 -26 c44 -15 82 -25 83 -24 2 2 -11 24 -28 50 -26 40 -78 201 -78 244 0
22 253 86 425 108 60 8 111 12 113 10 3 -2 0 -17 -6 -34 -10 -29 -10 -30 36
-47 26 -9 60 -21 75 -26 15 -6 30 -8 34 -4 3 3 1 6 -6 6 -20 0 -36 22 -49 66
-13 44 -16 117 -6 127 10 10 95 -4 134 -22z m355 -461 c14 -31 22 -39 36 -35
26 9 54 -9 77 -49 12 -21 33 -38 54 -45 57 -19 163 -75 162 -86 -3 -14 -64 -6
-92 12 -13 8 -31 12 -39 9 -12 -5 -14 -1 -10 14 3 11 1 17 -4 14 -6 -3 -17 0
-25 7 -24 20 -38 -4 -17 -29 19 -23 114 -52 170 -52 31 0 52 -15 39 -28 -8 -7
-141 -3 -221 7 l-60 8 48 2 c26 0 47 5 47 11 0 5 -22 17 -49 27 -27 9 -47 21
-45 25 3 4 -2 8 -10 8 -25 0 -30 2 -51 16 -11 8 -35 14 -55 14 -48 0 -80 10
-80 24 0 6 -11 13 -25 14 -16 1 -25 -3 -25 -13 0 -9 -10 -15 -25 -15 -30 0
-32 11 -6 34 12 11 27 15 44 11 20 -5 27 -2 32 14 6 20 17 26 39 22 17 -4 66
21 66 33 -1 6 -7 22 -15 36 -8 14 -14 34 -15 44 0 18 1 18 19 2 10 -9 26 -35
36 -56z m-738 -294 c12 -13 33 -46 48 -73 15 -26 31 -52 36 -57 20 -21 9 -36
-21 -29 -23 4 -40 -1 -70 -21 -22 -14 -40 -30 -40 -35 0 -16 -132 -103 -146
-97 -20 8 -17 22 9 39 12 8 36 27 53 43 16 16 52 44 78 62 27 18 45 36 42 39
-3 4 -16 -3 -29 -14 -28 -26 -97 -65 -97 -55 0 4 9 16 21 25 11 10 18 21 15
24 -3 3 -19 -6 -35 -20 -16 -13 -27 -28 -23 -31 3 -4 0 -5 -8 -1 -8 3 -28 -7
-45 -21 -24 -20 -36 -24 -60 -19 -16 4 -52 9 -80 11 -27 2 -95 10 -150 19 -55
8 -129 17 -164 20 -97 7 -151 16 -151 27 0 5 -5 6 -12 2 -7 -4 -62 -7 -123 -6
-60 1 -120 2 -131 2 -12 0 -25 7 -28 16 -14 36 761 -9 784 -45 3 -5 28 -10 56
-12 45 -2 56 1 90 29 21 18 41 32 45 32 13 0 137 88 132 94 -7 7 -94 -37 -167
-86 -58 -39 -84 -42 -146 -21 -8 2 -40 6 -70 8 -30 2 -84 8 -120 14 -36 5
-122 16 -192 22 -71 7 -128 16 -128 21 0 16 142 9 355 -18 22 -3 54 -7 72 -9
17 -2 40 -6 50 -9 10 -3 46 -8 80 -11 57 -5 64 -3 90 21 15 14 61 44 101 66
39 22 72 42 72 44 0 12 -34 -1 -103 -40 -42 -24 -77 -41 -77 -38 0 12 44 52
57 52 7 0 13 7 13 15 0 8 5 15 11 15 6 0 17 7 25 15 23 22 58 18 81 -9z
m-3517 -41 c7 -9 20 -14 29 -12 9 1 36 -12 60 -30 24 -18 52 -33 62 -33 9 0
19 -6 22 -12 3 -10 8 -9 23 2 18 14 18 14 5 -2 -7 -10 -11 -19 -7 -19 3 -1 10
-2 14 -3 13 -2 45 -36 39 -42 -5 -5 -117 61 -166 98 -31 24 -40 23 -34 -3 5
-19 3 -21 -28 -15 -32 6 -33 6 -15 -8 16 -13 17 -16 4 -21 -8 -3 -19 -5 -24
-4 -5 1 -20 1 -33 0 -23 -1 -23 -1 -6 -28 15 -22 15 -25 2 -20 -9 3 -18 1 -20
-6 -3 -8 -19 -4 -51 13 -25 14 -42 26 -36 28 5 2 8 8 4 13 -3 5 0 9 6 9 6 0
35 25 65 55 30 30 59 55 64 55 5 0 14 -7 21 -15z m4558 -11 c19 -6 22 -12 21
-58 -1 -52 -16 -121 -18 -82 -1 18 -4 17 -29 -7 -35 -34 -119 -59 -182 -56
-27 2 -55 -3 -63 -9 -12 -10 -12 -5 1 35 10 28 33 64 58 89 34 34 52 44 100
53 33 7 70 15 84 18 25 6 25 6 -5 13 -19 5 -23 8 -10 9 11 0 30 -2 43 -5z
m-880 -300 c2 -1 5 -19 8 -41 l4 -39 -70 -12 c-90 -15 -101 -15 -70 4 l25 15
-28 -4 c-20 -3 -27 -1 -23 8 5 15 -47 26 -66 13 -7 -4 -24 -8 -38 -8 -14 0
-34 -7 -44 -15 -29 -22 -44 -18 -20 5 18 18 152 60 192 60 8 0 25 9 38 19 23
18 49 16 92 -5z m-933 -80 c122 -6 497 -42 503 -48 2 -3 1 -10 -3 -16 -6 -10
-55 -9 -165 4 -25 2 -99 10 -165 16 -66 6 -124 15 -128 19 -5 5 -15 7 -22 5
-19 -8 -137 14 -149 27 -8 9 0 10 34 4 25 -5 68 -10 95 -11z"/>
<path d="M6174 2289 c-3 -5 6 -19 19 -31 13 -13 23 -33 22 -45 -2 -22 2 -23
59 -23 34 0 78 -3 99 -6 l38 -7 -28 55 c-22 44 -32 55 -53 56 -14 1 -53 3 -87
6 -35 2 -65 0 -69 -5z"/>
<path d="M3655 3707 c-2 -6 -16 -57 -30 -112 -15 -55 -46 -165 -71 -245 -24
-80 -46 -163 -50 -186 l-6 -41 45 -12 c53 -13 67 -39 43 -76 l-16 -25 -188 0
c-146 0 -193 -3 -216 -15 -15 -8 -40 -15 -55 -15 -14 0 -37 -6 -51 -13 -26
-14 -124 -24 -345 -37 -66 -3 -111 -7 -100 -8 32 -3 62 -29 70 -59 3 -15 18
-38 32 -50 21 -20 24 -30 20 -66 -10 -82 -20 -103 -82 -167 -57 -60 -63 -70
-75 -135 -12 -58 -16 -362 -8 -560 0 -11 -2 -73 -5 -138 -5 -117 -5 -118 21
-146 26 -28 78 -51 112 -51 10 0 55 36 101 80 46 44 87 80 91 80 4 0 19 5 34
10 25 10 26 12 10 29 -31 35 -16 99 26 108 32 6 32 21 -3 82 -11 18 -17 36
-14 39 3 4 24 5 45 3 29 -2 42 2 46 13 3 9 13 16 20 16 23 0 28 29 8 51 -15
17 -16 24 -6 39 15 24 16 50 2 50 -5 0 -10 9 -10 21 0 11 4 18 8 15 10 -6 32
82 32 129 0 28 -9 41 -60 85 -50 43 -59 56 -57 81 2 30 3 31 41 25 23 -4 69
-27 111 -56 l72 -50 69 21 c78 24 125 46 122 57 -3 8 22 48 69 110 27 36 31
47 23 68 -15 39 -12 47 15 40 48 -12 42 21 -15 79 -46 46 -51 55 -41 74 13 24
26 26 59 7 14 -7 38 -10 60 -7 32 5 37 11 43 41 14 69 70 84 158 41 54 -25 49
-38 -16 -43 -32 -3 -75 -13 -97 -22 l-38 -16 6 -47 c10 -76 8 -114 -7 -132 -8
-9 -21 -50 -30 -92 -14 -67 -14 -80 -1 -117 14 -43 28 -257 27 -418 -1 -76 1
-81 18 -77 11 3 26 15 34 26 13 19 13 23 -5 42 -24 26 -27 119 -6 148 8 10 41
29 73 42 53 22 58 26 55 52 -2 15 -13 35 -24 44 -27 21 -18 47 22 60 33 12 34
15 19 78 -10 46 -1 71 28 71 24 0 43 27 43 62 0 18 9 56 20 85 15 40 19 71 17
134 -3 79 -4 82 -38 110 -27 22 -32 30 -21 40 6 7 12 16 12 21 0 9 -48 18
-116 22 -28 2 -56 6 -61 9 -17 11 -3 45 29 72 26 22 39 25 103 25 41 0 86 -5
102 -11 23 -9 287 -69 303 -69 3 0 6 13 7 28 3 50 21 81 55 95 41 17 49 15 70
-24 16 -27 16 -32 3 -45 -8 -9 -15 -20 -15 -26 0 -6 -7 -16 -17 -23 -12 -9
-15 -25 -13 -71 1 -32 3 -78 4 -101 1 -39 2 -41 28 -36 14 3 48 -3 73 -13 39
-14 48 -15 55 -4 5 8 30 75 56 149 26 75 68 198 95 273 35 100 44 139 36 145
-7 5 -95 35 -197 67 -102 32 -266 87 -365 123 -99 36 -211 76 -250 88 -38 12
-94 32 -123 44 -39 16 -54 18 -57 8z"/>
<path d="M5060 3333 c-47 -49 -123 -127 -169 -174 l-83 -87 57 -37 c86 -58 90
-66 59 -155 -22 -61 -36 -84 -80 -127 -55 -52 -63 -70 -42 -91 22 -22 46 -13
79 28 18 22 38 40 45 40 22 0 32 -31 22 -67 -12 -43 -7 -49 44 -56 24 -3 49
-14 57 -25 9 -10 24 -22 34 -25 17 -7 22 -33 9 -53 -4 -6 -24 -17 -44 -23 -43
-14 -49 -36 -15 -47 40 -14 65 -11 76 11 17 37 44 173 38 197 -7 28 -101 133
-119 133 -7 1 -27 -2 -45 -6 l-32 -7 16 34 c24 50 68 67 142 55 60 -10 90 -23
149 -66 18 -13 55 -26 85 -30 56 -7 130 -36 141 -54 4 -6 16 -11 27 -11 10 0
19 -7 19 -15 0 -8 4 -15 8 -15 4 0 15 -16 24 -35 10 -23 12 -35 4 -35 -6 0 6
-12 27 -26 l38 -25 43 38 c23 21 73 63 111 93 71 56 208 179 213 191 8 18
-805 559 -841 559 -7 0 -51 -39 -97 -87z"/>
<path d="M6063 2797 c2 -135 5 -169 17 -177 12 -8 12 -10 -3 -16 -9 -3 -17
-14 -17 -25 0 -17 1 -17 29 -1 20 11 27 20 20 28 -10 12 34 63 55 65 6 0 1 4
-12 9 -12 5 -29 7 -37 4 -27 -11 -16 4 20 26 21 13 44 20 56 17 15 -4 32 5 57
29 37 34 37 35 10 32 -26 -3 -68 25 -68 46 -1 18 -45 63 -78 80 -17 9 -35 24
-41 33 -7 13 -9 -35 -8 -150z"/>
<path d="M1930 2233 c-11 -15 -18 -33 -15 -40 2 -8 1 -11 -5 -8 -5 3 -27 -20
-49 -52 -22 -32 -65 -93 -95 -135 -30 -42 -62 -91 -73 -110 -10 -18 -26 -41
-35 -52 -18 -20 -24 -56 -10 -56 5 0 13 12 20 28 l12 27 -5 -27 c-3 -14 -8
-33 -11 -42 -3 -9 -2 -16 4 -16 5 0 17 19 27 42 22 56 51 80 86 73 24 -5 30
-2 43 23 25 48 63 72 112 72 33 0 44 4 44 15 0 9 -7 18 -15 21 -17 7 -41 51
-50 94 -6 26 -3 31 20 40 14 5 36 10 48 10 12 0 29 5 37 10 13 9 11 14 -10 33
-14 12 -25 28 -26 35 -2 26 -4 30 -19 35 -8 4 -23 -5 -35 -20z"/>
<path d="M1110 1260 c-13 -39 -23 -87 -24 -107 -1 -33 5 -40 61 -85 l63 -50
25 29 c27 31 49 96 42 124 -3 10 -2 19 3 21 4 2 10 27 13 56 5 40 3 52 -6 49
-7 -2 -17 3 -23 11 -6 9 -34 16 -71 19 l-60 4 -23 -71z"/>
<path d="M6060 611 l0 -611 2028 0 2027 1 -60 25 c-33 14 -103 38 -155 54
-303 94 -395 126 -460 160 -19 10 -170 55 -335 100 -165 45 -383 105 -485 134
-102 29 -231 66 -287 82 -57 16 -102 33 -100 37 1 5 56 31 122 58 66 27 134
55 150 63 39 20 138 56 142 53 1 -2 0 -13 -4 -26 -5 -20 -10 -22 -40 -16 -22
4 -40 1 -55 -9 l-21 -15 24 -5 c13 -3 53 -10 89 -16 36 -6 75 -14 88 -17 16
-4 22 -1 22 12 0 11 6 15 18 11 44 -13 191 -46 205 -46 9 0 20 6 24 13 4 7 33
26 63 41 96 49 140 80 146 104 8 28 -12 54 -40 51 -12 -1 -30 2 -40 6 -11 5
-35 9 -53 9 -18 1 -33 5 -33 10 0 4 -12 5 -26 2 -18 -5 -24 -3 -19 5 5 8 1 9
-13 5 -11 -4 -29 -8 -39 -10 -38 -8 -179 -59 -226 -83 -27 -13 -51 -22 -53
-20 -2 2 28 18 68 36 97 43 139 64 135 67 -3 3 -114 -38 -207 -76 -264 -109
-485 -191 -503 -187 -28 6 -234 64 -407 115 -74 21 -261 76 -415 121 -323 95
-336 99 -281 100 66 1 33 12 -67 21 -52 5 -123 18 -158 29 -35 11 -107 31
-159 44 -52 14 -174 48 -270 77 -96 29 -203 60 -236 70 -34 10 -71 21 -83 25
l-21 6 0 -610z"/>
<path d="M9953 1061 c-32 -27 -65 -61 -72 -75 -8 -14 -17 -23 -21 -21 -12 8
-6 50 8 51 25 3 27 4 39 23 10 16 9 22 -3 32 -12 10 -13 9 -8 -7 6 -15 4 -17
-6 -7 -17 15 -40 -1 -40 -27 0 -10 -7 -23 -15 -30 -20 -16 -19 -70 1 -85 14
-10 14 -13 2 -26 -8 -8 -13 -20 -10 -27 3 -10 9 -9 23 4 15 13 19 14 19 3 0
-11 2 -11 10 1 13 19 13 43 0 35 -5 -3 -4 5 3 17 25 48 27 49 43 34 19 -20 18
-29 -10 -55 -13 -13 -27 -33 -30 -46 -3 -13 -14 -25 -24 -28 -12 -3 -8 -6 13
-11 17 -4 38 -12 48 -17 28 -15 157 -24 157 -11 0 5 -12 15 -27 21 -16 6 -36
16 -45 23 -21 15 -35 4 -20 -15 10 -11 6 -14 -21 -13 -35 2 -57 12 -57 27 0
16 32 23 41 8 7 -11 11 -10 23 6 8 11 13 28 10 38 -5 15 -2 18 13 13 10 -3 27
0 38 8 21 15 29 57 9 49 -7 -2 -10 -11 -7 -19 3 -8 -1 -14 -11 -14 -30 0 -16
25 46 84 54 52 59 60 42 67 -29 11 -31 11 -37 -11 -3 -13 -11 -18 -20 -14 -10
3 -18 -2 -22 -17 -8 -23 -15 -32 -48 -58 -16 -12 -16 -11 -11 19 l7 32 -27
-17 c-34 -22 -34 -2 0 22 57 40 84 65 78 74 -9 16 -21 10 -81 -40z"/>
<path d="M12120 830 c0 -5 -12 -7 -27 -4 -40 7 -58 -8 -44 -35 7 -11 18 -21
26 -21 8 0 15 -8 15 -18 0 -10 9 -37 20 -59 11 -22 22 -58 26 -79 5 -36 12
-43 92 -91 48 -29 106 -60 128 -69 41 -16 43 -16 95 13 30 16 72 41 94 54 22
14 56 31 75 39 19 7 39 17 44 22 6 4 19 8 30 8 12 1 46 12 76 25 53 23 54 24
23 26 -32 1 -48 4 -58 9 -3 1 -8 3 -12 4 -5 1 -17 7 -29 13 -28 16 -148 43
-190 43 -20 0 -43 4 -53 10 -10 5 -37 11 -59 12 -22 2 -38 7 -35 11 4 8 -47
-1 -57 -10 -7 -7 22 -22 60 -31 19 -5 87 -21 150 -37 111 -26 161 -47 147 -61
-4 -4 -37 -2 -74 5 -38 6 -111 18 -163 26 -137 22 -219 41 -265 64 -31 16 -35
20 -18 21 33 0 35 13 7 43 -14 15 -21 27 -17 27 19 1 33 18 27 33 -7 18 -34
24 -34 7z"/>
<path d="M3877 118 c-41 -36 -51 -40 -66 -31 -29 18 -55 -5 -43 -37 5 -14 7
-31 5 -37 -4 -10 17 -13 80 -13 l84 0 8 53 c17 120 7 130 -68 65z"/>
</g>
</svg>
